<svg xmlns="http://www.w3.org/2000/svg" viewBox="0 0 102.83 135.97"><defs><style>.cls-1{fill:#261c15;}.cls-2{fill:#fff;}</style></defs><g id="Layer_2" data-name="Layer 2"><g id="Layer_1-2" data-name="Layer 1"><polygon class="cls-1" points="17.23 28 17.23 0 0 17.23 0 28.36 17.23 28"/><path class="cls-1" d="M54.71,39.63a48.12,48.12,0,1,0,48.12,48.12A48.12,48.12,0,0,0,54.71,39.63Zm5.59,71.64a24,24,0,1,1,24-24A24,24,0,0,1,60.3,111.27Z"/><path class="cls-2" d="M79.55,129A54.43,54.43,0,0,1,52.85,136C28,136,7.19,119.57,1.51,97.45A50,50,0,0,1,.17,89.67C.08,88.64,0,87.6,0,86.55v-58L17.22,11.27v28H54.73L72,56.5H17.22v.33h0V89.52c.05.29.14.57.2.85A44.88,44.88,0,0,0,79.55,129Z"/><circle class="cls-2" cx="60.3" cy="87.28" r="21.69"/><path class="cls-1" d="M67.48,95.49c5.52-7.86,7-16.6,6-26,.24.18.44.32.62.47a21.82,21.82,0,0,1,8.32,17.55,1,1,0,0,1-.29.7,39.06,39.06,0,0,1-14.2,7.17C67.8,95.44,67.68,95.45,67.48,95.49Z"/><path class="cls-1" d="M53.13,79.18a32.15,32.15,0,0,0-5.41,12.35,42.21,42.21,0,0,0-.56,13.57,22.07,22.07,0,0,1-9-17.95,1.14,1.14,0,0,1,.33-.8,39,39,0,0,1,14.1-7.13l.32-.07S53,79.16,53.13,79.18Z"/><path class="cls-1" d="M71,85.18C67,76.48,60.08,70.88,51.5,67c.22-.1.39-.19.57-.25a21.93,21.93,0,0,1,19.52,1.51,1,1,0,0,1,.43.62,39.38,39.38,0,0,1-.91,16C71.08,84.93,71,85,71,85.18Z"/><path class="cls-1" d="M49.58,89.51a34.09,34.09,0,0,0,8.09,10.79A41.7,41.7,0,0,0,69,107.54v.16c-1.12.36-2.23.8-3.38,1.07A21.83,21.83,0,0,1,49,106.33a1,1,0,0,1-.46-.66,40.55,40.55,0,0,1,.62-14.73C49.32,90.46,49.45,90,49.58,89.51Z"/><path class="cls-1" d="M82.3,89.8A21.32,21.32,0,0,1,80.66,96a21.93,21.93,0,0,1-9.51,10.59.92.92,0,0,1-.7.09A39.58,39.58,0,0,1,57,97.81l-.17-.21C66.37,98.48,74.66,95.32,82.3,89.8Z"/><path class="cls-1" d="M38.32,84.8a21.31,21.31,0,0,1,1.59-6.1A21.92,21.92,0,0,1,49.41,68a1.08,1.08,0,0,1,.8-.1,39.54,39.54,0,0,1,13.24,8.65,2.37,2.37,0,0,1,.27.28.24.24,0,0,1,0,.12C54.27,76.13,46,79.26,38.32,84.8Z"/></g></g></svg>